{
DisplayStrings = (
/unif005
);
copyright = tangentsnowball;
date = "2012-01-05 09:51:22 +0000";
designer = "Tangent Snowball";
designerURL = www.tangentsnowball.com;
familyName = "Snowcone";
featurePrefixes = (
{
automatic = 1;
code = "languagesystem DFLT dflt;\012languagesystem latn dflt;\012";
name = Languagesystems;
}
);
fontMaster = (
{
ascender = 800;
capHeight = 700;
descender = "-200";
id = "5DF6A5AF-1C8C-47E3-A702-CFF98FD4A394";
xHeight = 500;
}
);
glyphs = (
{
glyphname = unif000;
lastChange = "2012-04-04 12:22:12 +0100";
layers = (
{
layerId = "5DF6A5AF-1C8C-47E3-A702-CFF98FD4A394";
name = Regular;
paths = (
{
closed = 1;
nodes = (
"394 644 LINE SMOOTH",
"348 719 OFFCURVE",
"274 719 OFFCURVE",
"228 644 CURVE SMOOTH",
"-80 138 LINE SMOOTH",
"-126 63 OFFCURVE",
"-91 2 OFFCURVE",
"-3 2 CURVE SMOOTH",
"625 2 LINE SMOOTH",
"713 2 OFFCURVE",
"748 63 OFFCURVE",
"702 138 CURVE SMOOTH"
);
},
{
closed = 1;
nodes = (
"251 540 OFFCURVE",
"277 566 OFFCURVE",
"310 566 CURVE SMOOTH",
"343 566 OFFCURVE",
"369 540 OFFCURVE",
"369 507 CURVE SMOOTH",
"369 280 LINE SMOOTH",
"369 248 OFFCURVE",
"343 221 OFFCURVE",
"310 221 CURVE SMOOTH",
"277 221 OFFCURVE",
"251 248 OFFCURVE",
"251 280 CURVE SMOOTH",
"251 507 LINE SMOOTH"
);
},
{
closed = 1;
nodes = (
"274 48 OFFCURVE",
"244 77 OFFCURVE",
"244 114 CURVE SMOOTH",
"244 150 OFFCURVE",
"274 180 OFFCURVE",
"310 180 CURVE SMOOTH",
"346 180 OFFCURVE",
"376 150 OFFCURVE",
"376 114 CURVE SMOOTH",
"376 77 OFFCURVE",
"346 48 OFFCURVE",
"310 48 CURVE SMOOTH"
);
}
);
width = 600;
}
);
unicode = F000;
},
{
glyphname = unif001;
lastChange = "2012-04-04 12:22:04 +0100";
layers = (
{
layerId = "5DF6A5AF-1C8C-47E3-A702-CFF98FD4A394";
name = Regular;
paths = (
{
closed = 1;
nodes = (
"413 348 LINE",
"632 567 LINE SMOOTH",
"662 597 OFFCURVE",
"662 645 OFFCURVE",
"632 674 CURVE SMOOTH",
"603 704 OFFCURVE",
"555 704 OFFCURVE",
"525 674 CURVE SMOOTH",
"306 455 LINE",
"87 674 LINE SMOOTH",
"58 704 OFFCURVE",
"10 704 OFFCURVE",
"-20 674 CURVE SMOOTH",
"-49 645 OFFCURVE",
"-49 597 OFFCURVE",
"-20 567 CURVE SMOOTH",
"200 348 LINE",
"-20 129 LINE SMOOTH",
"-49 99 OFFCURVE",
"-49 52 OFFCURVE",
"-20 22 CURVE SMOOTH",
"10 -7 OFFCURVE",
"58 -7 OFFCURVE",
"87 22 CURVE SMOOTH",
"306 241 LINE",
"525 22 LINE SMOOTH",
"555 -7 OFFCURVE",
"603 -7 OFFCURVE",
"632 22 CURVE SMOOTH",
"662 52 OFFCURVE",
"662 99 OFFCURVE",
"632 129 CURVE SMOOTH"
);
}
);
width = 600;
}
);
unicode = F001;
},
{
glyphname = unif002;
lastChange = "2012-04-03 17:36:08 +0100";
layers = (
{
layerId = "5DF6A5AF-1C8C-47E3-A702-CFF98FD4A394";
name = Regular;
paths = (
{
closed = 1;
nodes = (
"264 0 OFFCURVE",
"230 34 OFFCURVE",
"230 76 CURVE",
"230 633 LINE",
"230 675 OFFCURVE",
"264 709 OFFCURVE",
"306 709 CURVE",
"306 709 LINE",
"348 709 OFFCURVE",
"381 675 OFFCURVE",
"381 633 CURVE SMOOTH",
"381 76 LINE SMOOTH",
"381 34 OFFCURVE",
"348 0 OFFCURVE",
"306 0 CURVE SMOOTH"
);
},
{
closed = 1;
nodes = (
"660 313 OFFCURVE",
"626 279 OFFCURVE",
"585 279 CURVE SMOOTH",
"27 279 LINE SMOOTH",
"-15 279 OFFCURVE",
"-48 313 OFFCURVE",
"-48 354 CURVE",
"-48 354 LINE",
"-48 396 OFFCURVE",
"-15 430 OFFCURVE",
"27 430 CURVE SMOOTH",
"585 430 LINE SMOOTH",
"626 430 OFFCURVE",
"660 396 OFFCURVE",
"660 354 CURVE SMOOTH"
);
}
);
width = 600;
}
);
unicode = F002;
},
{
glyphname = unif003;
lastChange = "2012-04-03 17:36:19 +0100";
layers = (
{
layerId = "5DF6A5AF-1C8C-47E3-A702-CFF98FD4A394";
name = Regular;
paths = (
{
closed = 1;
nodes = (
"582 669 OFFCURVE",
"598 623 OFFCURVE",
"579 586 CURVE SMOOTH",
"315 39 LINE SMOOTH",
"296 2 OFFCURVE",
"251 -13 OFFCURVE",
"213 5 CURVE",
"213 5 LINE",
"176 24 OFFCURVE",
"161 69 OFFCURVE",
"179 106 CURVE SMOOTH",
"444 653 LINE SMOOTH",
"462 690 OFFCURVE",
"507 706 OFFCURVE",
"545 687 CURVE SMOOTH"
);
},
{
closed = 1;
nodes = (
"61 373 OFFCURVE",
"109 367 OFFCURVE",
"135 334 CURVE SMOOTH",
"302 123 LINE SMOOTH",
"328 90 OFFCURVE",
"323 43 OFFCURVE",
"290 17 CURVE",
"290 17 LINE",
"257 -9 OFFCURVE",
"210 -4 OFFCURVE",
"184 29 CURVE SMOOTH",
"16 241 LINE SMOOTH",
"-10 273 OFFCURVE",
"-4 321 OFFCURVE",
"29 347 CURVE SMOOTH"
);
}
);
width = 600;
}
);
unicode = F003;
},
{
glyphname = unif004;
lastChange = "2012-04-03 17:36:34 +0100";
layers = (
{
layerId = "5DF6A5AF-1C8C-47E3-A702-CFF98FD4A394";
name = Regular;
paths = (
{
closed = 1;
nodes = (
"651 307 OFFCURVE",
"617 274 OFFCURVE",
"575 274 CURVE SMOOTH",
"18 274 LINE SMOOTH",
"-24 274 OFFCURVE",
"-58 307 OFFCURVE",
"-58 349 CURVE",
"-58 349 LINE",
"-58 391 OFFCURVE",
"-24 425 OFFCURVE",
"18 425 CURVE SMOOTH",
"575 425 LINE SMOOTH",
"617 425 OFFCURVE",
"651 391 OFFCURVE",
"651 349 CURVE SMOOTH"
);
}
);
width = 600;
}
);
unicode = F004;
},
{
glyphname = unif005;
lastChange = "2012-04-04 12:22:21 +0100";
layers = (
{
layerId = "5DF6A5AF-1C8C-47E3-A702-CFF98FD4A394";
name = Regular;
paths = (
{
closed = 1;
nodes = (
"658 340 OFFCURVE",
"666 359 OFFCURVE",
"643 383 CURVE SMOOTH",
"345 681 LINE SMOOTH",
"322 704 OFFCURVE",
"283 704 OFFCURVE",
"260 681 CURVE SMOOTH",
"-38 383 LINE SMOOTH",
"-61 359 OFFCURVE",
"-53 340 OFFCURVE",
"-20 340 CURVE SMOOTH",
"-16 340 LINE SMOOTH",
"17 340 OFFCURVE",
"44 341 OFFCURVE",
"44 341 CURVE",
"44 60 LINE SMOOTH",
"44 27 OFFCURVE",
"71 0 OFFCURVE",
"104 0 CURVE SMOOTH",
"501 0 LINE SMOOTH",
"534 0 OFFCURVE",
"561 27 OFFCURVE",
"561 60 CURVE SMOOTH",
"561 341 LINE",
"561 341 OFFCURVE",
"588 340 OFFCURVE",
"621 340 CURVE SMOOTH",
"625 340 LINE SMOOTH"
);
}
);
width = 600;
}
);
unicode = F005;
},
{
glyphname = unif006;
lastChange = "2012-04-03 17:37:12 +0100";
layers = (
{
layerId = "5DF6A5AF-1C8C-47E3-A702-CFF98FD4A394";
name = Regular;
paths = (
{
closed = 1;
nodes = (
"68 696 OFFCURVE",
"-127 348 OFFCURVE",
"-127 348 CURVE SMOOTH",
"-127 348 OFFCURVE",
"68 0 OFFCURVE",
"309 0 CURVE SMOOTH",
"550 0 OFFCURVE",
"745 348 OFFCURVE",
"745 348 CURVE SMOOTH",
"745 348 OFFCURVE",
"550 696 OFFCURVE",
"309 696 CURVE SMOOTH"
);
},
{
closed = 1;
nodes = (
"190 132 OFFCURVE",
"89 233 OFFCURVE",
"89 357 CURVE SMOOTH",
"89 482 OFFCURVE",
"190 583 OFFCURVE",
"315 583 CURVE SMOOTH",
"439 583 OFFCURVE",
"540 482 OFFCURVE",
"540 357 CURVE SMOOTH",
"540 233 OFFCURVE",
"439 132 OFFCURVE",
"315 132 CURVE SMOOTH"
);
},
{
closed = 1;
nodes = (
"404 293 OFFCURVE",
"361 251 OFFCURVE",
"309 251 CURVE SMOOTH",
"257 251 OFFCURVE",
"214 293 OFFCURVE",
"214 345 CURVE SMOOTH",
"214 398 OFFCURVE",
"257 440 OFFCURVE",
"309 440 CURVE SMOOTH",
"361 440 OFFCURVE",
"404 398 OFFCURVE",
"404 345 CURVE SMOOTH"
);
}
);
width = 600;
}
);
unicode = F006;
},
{
glyphname = unif007;
lastChange = "2012-04-03 17:37:24 +0100";
layers = (
{
layerId = "5DF6A5AF-1C8C-47E3-A702-CFF98FD4A394";
name = Regular;
paths = (
{
closed = 1;
nodes = (
"-55 329 OFFCURVE",
"-55 329 OFFCURVE",
"-55 329 CURVE",
"-53 328 LINE",
"-55 329 LINE"
);
},
{
closed = 1;
nodes = (
"121 697 OFFCURVE",
"-21 573 OFFCURVE",
"-50 409 CURVE",
"41 355 LINE",
"110 429 LINE",
"141 499 OFFCURVE",
"211 549 OFFCURVE",
"293 549 CURVE SMOOTH",
"389 549 OFFCURVE",
"470 481 OFFCURVE",
"489 390 CURVE",
"554 458 LINE",
"640 381 LINE",
"623 558 OFFCURVE",
"474 697 OFFCURVE",
"293 697 CURVE SMOOTH"
);
},
{
closed = 1;
nodes = (
"468 255 LINE",
"434 199 OFFCURVE",
"380 148 OFFCURVE",
"292 148 CURVE SMOOTH",
"210 148 OFFCURVE",
"140 197 OFFCURVE",
"109 267 CURVE",
"67 186 LINE",
"-38 237 LINE",
"8 99 OFFCURVE",
"139 0 OFFCURVE",
"292 0 CURVE SMOOTH",
"439 0 OFFCURVE",
"564 91 OFFCURVE",
"616 219 CURVE",
"558 300 LINE"
);
}
);
width = 600;
}
);
unicode = F007;
},
{
glyphname = unif008;
lastChange = "2012-04-03 17:37:34 +0100";
layers = (
{
layerId = "5DF6A5AF-1C8C-47E3-A702-CFF98FD4A394";
name = Regular;
paths = (
{
closed = 1;
nodes = (
"-51 504 OFFCURVE",
"-39 528 OFFCURVE",
"-18 542 CURVE SMOOTH",
"16 566 OFFCURVE",
"63 557 OFFCURVE",
"86 522 CURVE SMOOTH",
"299 209 LINE",
"512 522 LINE SMOOTH",
"535 557 OFFCURVE",
"582 566 OFFCURVE",
"616 542 CURVE SMOOTH",
"651 519 OFFCURVE",
"659 473 OFFCURVE",
"636 438 CURVE SMOOTH",
"361 33 LINE SMOOTH",
"347 12 OFFCURVE",
"324 0 OFFCURVE",
"299 0 CURVE SMOOTH",
"274 0 OFFCURVE",
"251 12 OFFCURVE",
"237 33 CURVE SMOOTH",
"-38 438 LINE SMOOTH",
"-47 451 OFFCURVE",
"-51 466 OFFCURVE",
"-51 480 CURVE SMOOTH"
);
}
);
width = 600;
}
);
unicode = F008;
},
{
glyphname = unif009;
lastChange = "2012-04-03 17:37:42 +0100";
layers = (
{
layerId = "5DF6A5AF-1C8C-47E3-A702-CFF98FD4A394";
name = Regular;
paths = (
{
closed = 1;
nodes = (
"642 51 OFFCURVE",
"630 27 OFFCURVE",
"609 13 CURVE SMOOTH",
"575 -10 OFFCURVE",
"528 -1 OFFCURVE",
"505 33 CURVE SMOOTH",
"292 347 LINE",
"79 33 LINE SMOOTH",
"56 -1 OFFCURVE",
"9 -10 OFFCURVE",
"-25 13 CURVE SMOOTH",
"-59 36 OFFCURVE",
"-68 83 OFFCURVE",
"-45 117 CURVE SMOOTH",
"230 522 LINE SMOOTH",
"244 543 OFFCURVE",
"267 555 OFFCURVE",
"292 555 CURVE SMOOTH",
"317 555 OFFCURVE",
"340 543 OFFCURVE",
"354 522 CURVE SMOOTH",
"629 117 LINE SMOOTH",
"638 104 OFFCURVE",
"642 90 OFFCURVE",
"642 75 CURVE SMOOTH"
);
}
);
width = 600;
}
);
unicode = F009;
},
{
glyphname = unif00a;
lastChange = "2012-04-03 17:37:51 +0100";
layers = (
{
layerId = "5DF6A5AF-1C8C-47E3-A702-CFF98FD4A394";
name = Regular;
paths = (
{
closed = 1;
nodes = (
"75 0 OFFCURVE",
"51 12 OFFCURVE",
"37 33 CURVE SMOOTH",
"13 67 OFFCURVE",
"22 114 OFFCURVE",
"57 137 CURVE SMOOTH",
"370 350 LINE",
"57 563 LINE SMOOTH",
"22 586 OFFCURVE",
"13 633 OFFCURVE",
"37 667 CURVE SMOOTH",
"60 701 OFFCURVE",
"107 710 OFFCURVE",
"141 687 CURVE SMOOTH",
"546 412 LINE SMOOTH",
"567 398 OFFCURVE",
"579 375 OFFCURVE",
"579 350 CURVE SMOOTH",
"579 325 OFFCURVE",
"567 302 OFFCURVE",
"546 288 CURVE SMOOTH",
"141 13 LINE SMOOTH",
"128 4 OFFCURVE",
"113 0 OFFCURVE",
"99 0 CURVE SMOOTH"
);
}
);
width = 600;
}
);
unicode = F00A;
},
{
glyphname = unif00b;
lastChange = "2012-04-03 17:38:00 +0100";
layers = (
{
layerId = "5DF6A5AF-1C8C-47E3-A702-CFF98FD4A394";
name = Regular;
paths = (
{
closed = 1;
nodes = (
"485 0 OFFCURVE",
"470 4 OFFCURVE",
"457 13 CURVE SMOOTH",
"52 288 LINE SMOOTH",
"31 302 OFFCURVE",
"19 325 OFFCURVE",
"19 350 CURVE SMOOTH",
"19 375 OFFCURVE",
"31 398 OFFCURVE",
"52 412 CURVE SMOOTH",
"457 687 LINE SMOOTH",
"491 710 OFFCURVE",
"538 701 OFFCURVE",
"561 667 CURVE SMOOTH",
"585 633 OFFCURVE",
"576 586 OFFCURVE",
"541 563 CURVE SMOOTH",
"227 350 LINE",
"541 137 LINE SMOOTH",
"576 114 OFFCURVE",
"585 67 OFFCURVE",
"561 33 CURVE SMOOTH",
"547 12 OFFCURVE",
"523 0 OFFCURVE",
"499 0 CURVE SMOOTH"
);
}
);
width = 600;
}
);
unicode = F00B;
},
{
glyphname = unif00c;
lastChange = "2012-04-03 17:38:09 +0100";
layers = (
{
layerId = "5DF6A5AF-1C8C-47E3-A702-CFF98FD4A394";
name = Regular;
paths = (
{
closed = 1;
nodes = (
"601 523 OFFCURVE",
"576 560 OFFCURVE",
"544 591 CURVE SMOOTH",
"512 623 OFFCURVE",
"475 648 OFFCURVE",
"434 666 CURVE SMOOTH",
"391 684 OFFCURVE",
"346 693 OFFCURVE",
"299 693 CURVE SMOOTH",
"253 693 OFFCURVE",
"207 684 OFFCURVE",
"164 666 CURVE SMOOTH",
"123 648 OFFCURVE",
"86 623 OFFCURVE",
"54 591 CURVE SMOOTH",
"23 560 OFFCURVE",
"-2 523 OFFCURVE",
"-20 481 CURVE SMOOTH",
"-38 439 OFFCURVE",
"-47 393 OFFCURVE",
"-47 346 CURVE SMOOTH",
"-47 300 OFFCURVE",
"-38 254 OFFCURVE",
"-20 212 CURVE SMOOTH",
"-2 170 OFFCURVE",
"23 133 OFFCURVE",
"54 101 CURVE SMOOTH",
"86 70 OFFCURVE",
"123 45 OFFCURVE",
"164 27 CURVE SMOOTH",
"207 9 OFFCURVE",
"253 0 OFFCURVE",
"299 0 CURVE SMOOTH",
"346 0 OFFCURVE",
"391 9 OFFCURVE",
"434 27 CURVE SMOOTH",
"475 45 OFFCURVE",
"512 70 OFFCURVE",
"544 101 CURVE SMOOTH",
"576 133 OFFCURVE",
"601 170 OFFCURVE",
"618 212 CURVE SMOOTH",
"636 254 OFFCURVE",
"646 300 OFFCURVE",
"646 346 CURVE SMOOTH",
"646 393 OFFCURVE",
"636 439 OFFCURVE",
"618 481 CURVE SMOOTH"
);
},
{
closed = 1;
nodes = (
"335 563 OFFCURVE",
"369 554 OFFCURVE",
"399 538 CURVE",
"110 242 LINE",
"93 273 OFFCURVE",
"83 309 OFFCURVE",
"83 346 CURVE SMOOTH",
"83 466 OFFCURVE",
"180 563 OFFCURVE",
"299 563 CURVE SMOOTH"
);
},
{
closed = 1;
nodes = (
"273 130 OFFCURVE",
"248 135 OFFCURVE",
"224 143 CURVE",
"501 426 LINE",
"510 401 OFFCURVE",
"516 374 OFFCURVE",
"516 346 CURVE SMOOTH",
"516 227 OFFCURVE",
"419 130 OFFCURVE",
"299 130 CURVE SMOOTH"
);
}
);
width = 600;
}
);
unicode = F00C;
},
{
glyphname = unif00d;
lastChange = "2012-04-03 17:38:36 +0100";
layers = (
{
layerId = "5DF6A5AF-1C8C-47E3-A702-CFF98FD4A394";
name = Regular;
paths = (
{
closed = 1;
nodes = (
"142 698 OFFCURVE",
"14 571 OFFCURVE",
"14 413 CURVE SMOOTH",
"14 256 OFFCURVE",
"299 0 OFFCURVE",
"299 0 CURVE SMOOTH",
"299 0 OFFCURVE",
"584 256 OFFCURVE",
"584 413 CURVE SMOOTH",
"584 571 OFFCURVE",
"456 698 OFFCURVE",
"299 698 CURVE SMOOTH"
);
},
{
closed = 1;
nodes = (
"221 276 OFFCURVE",
"158 339 OFFCURVE",
"158 417 CURVE SMOOTH",
"158 495 OFFCURVE",
"221 558 OFFCURVE",
"299 558 CURVE SMOOTH",
"377 558 OFFCURVE",
"440 495 OFFCURVE",
"440 417 CURVE SMOOTH",
"440 339 OFFCURVE",
"377 276 OFFCURVE",
"299 276 CURVE SMOOTH"
);
}
);
width = 600;
}
);
unicode = F00D;
},
{
glyphname = unif00e;
lastChange = "2012-04-03 17:38:56 +0100";
layers = (
{
layerId = "5DF6A5AF-1C8C-47E3-A702-CFF98FD4A394";
name = Regular;
paths = (
{
closed = 1;
nodes = (
"371 422 LINE",
"628 422 LINE",
"420 271 LINE",
"499 26 LINE",
"291 177 LINE",
"83 26 LINE",
"163 271 LINE",
"-45 422 LINE",
"212 422 LINE",
"291 667 LINE"
);
},
{
closed = 1;
nodes = (
"494 0 OFFCURVE",
"488 2 OFFCURVE",
"484 5 CURVE SMOOTH",
"291 145 LINE",
"99 5 LINE SMOOTH",
"89 -2 OFFCURVE",
"77 -2 OFFCURVE",
"68 5 CURVE SMOOTH",
"58 12 OFFCURVE",
"54 24 OFFCURVE",
"58 35 CURVE SMOOTH",
"132 261 LINE",
"-61 401 LINE SMOOTH",
"-70 407 OFFCURVE",
"-74 419 OFFCURVE",
"-71 430 CURVE SMOOTH",
"-67 441 OFFCURVE",
"-57 448 OFFCURVE",
"-45 448 CURVE SMOOTH",
"192 448 LINE",
"266 675 LINE SMOOTH",
"270 686 OFFCURVE",
"280 693 OFFCURVE",
"291 693 CURVE SMOOTH",
"303 693 OFFCURVE",
"313 686 OFFCURVE",
"316 675 CURVE SMOOTH",
"390 448 LINE",
"628 448 LINE SMOOTH",
"639 448 OFFCURVE",
"649 441 OFFCURVE",
"653 430 CURVE SMOOTH",
"656 419 OFFCURVE",
"652 407 OFFCURVE",
"643 401 CURVE SMOOTH",
"451 261 LINE",
"524 35 LINE SMOOTH",
"528 24 OFFCURVE",
"524 12 OFFCURVE",
"515 5 CURVE SMOOTH",
"510 2 OFFCURVE",
"505 0 OFFCURVE",
"499 0 CURVE SMOOTH"
);
},
{
closed = 1;
nodes = (
"297 204 OFFCURVE",
"302 202 OFFCURVE",
"307 199 CURVE SMOOTH",
"449 95 LINE",
"395 263 LINE SMOOTH",
"391 274 OFFCURVE",
"395 285 OFFCURVE",
"404 292 CURVE SMOOTH",
"547 396 LINE",
"371 396 LINE SMOOTH",
"359 396 OFFCURVE",
"349 403 OFFCURVE",
"345 414 CURVE SMOOTH",
"291 581 LINE",
"237 414 LINE SMOOTH",
"233 403 OFFCURVE",
"223 396 OFFCURVE",
"212 396 CURVE SMOOTH",
"36 396 LINE",
"178 292 LINE SMOOTH",
"187 285 OFFCURVE",
"191 274 OFFCURVE",
"188 263 CURVE SMOOTH",
"133 95 LINE",
"276 199 LINE SMOOTH",
"280 202 OFFCURVE",
"286 204 OFFCURVE",
"291 204 CURVE SMOOTH"
);
}
);
width = 600;
}
);
unicode = F00E;
},
{
glyphname = unif010;
lastChange = "2012-04-03 17:39:05 +0100";
layers = (
{
layerId = "5DF6A5AF-1C8C-47E3-A702-CFF98FD4A394";
name = Regular;
paths = (
{
closed = 1;
nodes = (
"448 426 OFFCURVE",
"467 482 OFFCURVE",
"467 528 CURVE SMOOTH",
"467 537 LINE SMOOTH",
"467 628 OFFCURVE",
"393 702 OFFCURVE",
"302 702 CURVE SMOOTH",
"293 702 LINE SMOOTH",
"202 702 OFFCURVE",
"128 628 OFFCURVE",
"128 537 CURVE SMOOTH",
"128 528 LINE SMOOTH",
"128 482 OFFCURVE",
"147 426 OFFCURVE",
"178 382 CURVE",
"87 329 OFFCURVE",
"23 216 OFFCURVE",
"23 85 CURVE SMOOTH",
"23 -27 OFFCURVE",
"572 -29 OFFCURVE",
"572 85 CURVE SMOOTH",
"572 216 OFFCURVE",
"508 329 OFFCURVE",
"417 382 CURVE"
);
}
);
width = 600;
}
);
unicode = F010;
},
{
glyphname = unif011;
lastChange = "2012-04-03 17:39:35 +0100";
layers = (
{
layerId = "5DF6A5AF-1C8C-47E3-A702-CFF98FD4A394";
name = Regular;
paths = (
{
closed = 1;
nodes = (
"564 285 OFFCURVE",
"579 353 OFFCURVE",
"567 421 CURVE SMOOTH",
"555 488 OFFCURVE",
"517 547 OFFCURVE",
"461 586 CURVE SMOOTH",
"405 625 OFFCURVE",
"337 641 OFFCURVE",
"269 629 CURVE SMOOTH",
"202 617 OFFCURVE",
"143 579 OFFCURVE",
"104 523 CURVE SMOOTH",
"65 467 OFFCURVE",
"49 399 OFFCURVE",
"61 331 CURVE SMOOTH",
"69 290 OFFCURVE",
"86 251 OFFCURVE",
"111 219 CURVE",
"41 119 LINE SMOOTH",
"17 85 OFFCURVE",
"26 38 OFFCURVE",
"60 14 CURVE SMOOTH",
"94 -10 OFFCURVE",
"141 -2 OFFCURVE",
"165 32 CURVE SMOOTH",
"235 132 LINE",
"274 119 OFFCURVE",
"317 116 OFFCURVE",
"359 123 CURVE SMOOTH",
"426 135 OFFCURVE",
"485 173 OFFCURVE",
"524 229 CURVE SMOOTH"
);
},
{
closed = 1;
nodes = (
"253 267 OFFCURVE",
"248 272 OFFCURVE",
"243 275 CURVE SMOOTH",
"237 279 OFFCURVE",
"232 282 OFFCURVE",
"227 284 CURVE",
"182 327 OFFCURVE",
"174 397 OFFCURVE",
"210 448 CURVE SMOOTH",
"250 506 OFFCURVE",
"329 520 OFFCURVE",
"387 480 CURVE SMOOTH",
"444 440 OFFCURVE",
"458 361 OFFCURVE",
"418 303 CURVE SMOOTH",
"381 251 OFFCURVE",
"313 235 OFFCURVE",
"257 263 CURVE"
);
}
);
width = 600;
}
);
unicode = F011;
},
{
glyphname = unif012;
lastChange = "2012-04-03 17:39:44 +0100";
layers = (
{
layerId = "5DF6A5AF-1C8C-47E3-A702-CFF98FD4A394";
name = Regular;
paths = (
{
closed = 1;
nodes = (
"84 675 LINE SMOOTH",
"-7 675 OFFCURVE",
"-81 601 OFFCURVE",
"-81 510 CURVE SMOOTH",
"-81 271 LINE SMOOTH",
"-81 180 OFFCURVE",
"-7 106 OFFCURVE",
"84 106 CURVE SMOOTH",
"362 106 LINE",
"373 65 OFFCURVE",
"484 -26 OFFCURVE",
"499 7 CURVE SMOOTH",
"505 18 OFFCURVE",
"519 62 OFFCURVE",
"538 108 CURVE",
"616 122 OFFCURVE",
"676 189 OFFCURVE",
"676 271 CURVE SMOOTH",
"676 510 LINE SMOOTH",
"676 601 OFFCURVE",
"602 675 OFFCURVE",
"511 675 CURVE"
);
}
);
width = 600;
}
);
unicode = F012;
},
{
glyphname = unif013;
lastChange = "2012-04-03 17:39:58 +0100";
layers = (
{
layerId = "5DF6A5AF-1C8C-47E3-A702-CFF98FD4A394";
name = Regular;
paths = (
{
closed = 1;
nodes = (
"581 452 OFFCURVE",
"569 480 OFFCURVE",
"553 505 CURVE",
"570 534 OFFCURVE",
"566 572 OFFCURVE",
"541 597 CURVE SMOOTH",
"516 622 OFFCURVE",
"478 626 OFFCURVE",
"448 608 CURVE",
"424 623 OFFCURVE",
"396 634 OFFCURVE",
"368 641 CURVE",
"360 674 OFFCURVE",
"330 699 OFFCURVE",
"294 699 CURVE SMOOTH",
"258 699 OFFCURVE",
"228 674 OFFCURVE",
"220 641 CURVE",
"192 634 OFFCURVE",
"165 623 OFFCURVE",
"140 608 CURVE",
"111 626 OFFCURVE",
"72 622 OFFCURVE",
"47 597 CURVE SMOOTH",
"22 572 OFFCURVE",
"18 534 OFFCURVE",
"35 505 CURVE",
"19 480 OFFCURVE",
"7 452 OFFCURVE",
"0 422 CURVE",
"-32 414 OFFCURVE",
"-56 384 OFFCURVE",
"-56 350 CURVE SMOOTH",
"-56 316 OFFCURVE",
"-33 287 OFFCURVE",
"-2 278 CURVE",
"5 246 OFFCURVE",
"17 217 OFFCURVE",
"33 190 CURVE",
"18 162 OFFCURVE",
"23 126 OFFCURVE",
"47 102 CURVE SMOOTH",
"70 79 OFFCURVE",
"105 74 OFFCURVE",
"133 88 CURVE",
"160 71 OFFCURVE",
"191 58 OFFCURVE",
"223 50 CURVE",
"233 21 OFFCURVE",
"261 0 OFFCURVE",
"294 0 CURVE SMOOTH",
"327 0 OFFCURVE",
"355 21 OFFCURVE",
"365 50 CURVE",
"397 58 OFFCURVE",
"428 71 OFFCURVE",
"455 88 CURVE",
"483 74 OFFCURVE",
"518 79 OFFCURVE",
"541 102 CURVE SMOOTH",
"565 126 OFFCURVE",
"570 162 OFFCURVE",
"555 190 CURVE",
"571 217 OFFCURVE",
"583 246 OFFCURVE",
"591 278 CURVE",
"621 287 OFFCURVE",
"644 316 OFFCURVE",
"644 350 CURVE SMOOTH",
"644 384 OFFCURVE",
"620 414 OFFCURVE",
"589 422 CURVE"
);
},
{
closed = 1;
nodes = (
"212 198 OFFCURVE",
"146 264 OFFCURVE",
"146 346 CURVE SMOOTH",
"146 428 OFFCURVE",
"212 494 OFFCURVE",
"294 494 CURVE SMOOTH",
"376 494 OFFCURVE",
"442 428 OFFCURVE",
"442 346 CURVE SMOOTH",
"442 264 OFFCURVE",
"376 198 OFFCURVE",
"294 198 CURVE SMOOTH"
);
}
);
width = 600;
}
);
unicode = F013;
},
{
glyphname = unif014;
lastChange = "2012-04-03 17:40:09 +0100";
layers = (
{
layerId = "5DF6A5AF-1C8C-47E3-A702-CFF98FD4A394";
name = Regular;
paths = (
{
closed = 1;
nodes = (
"580 508 OFFCURVE",
"564 528 OFFCURVE",
"544 546 CURVE SMOOTH",
"523 564 OFFCURVE",
"503 575 OFFCURVE",
"488 575 CURVE SMOOTH",
"481 575 OFFCURVE",
"475 572 OFFCURVE",
"471 568 CURVE SMOOTH",
"421 519 LINE SMOOTH",
"419 517 OFFCURVE",
"419 514 OFFCURVE",
"421 512 CURVE SMOOTH",
"528 405 LINE SMOOTH",
"529 404 OFFCURVE",
"530 403 OFFCURVE",
"532 403 CURVE SMOOTH",
"533 403 OFFCURVE",
"534 404 OFFCURVE",
"535 405 CURVE SMOOTH",
"585 454 LINE SMOOTH",
"590 460 OFFCURVE",
"595 470 OFFCURVE",
"587 490 CURVE SMOOTH"
);
},
{
closed = 1;
nodes = (
"359 453 OFFCURVE",
"356 453 OFFCURVE",
"354 451 CURVE SMOOTH",
"65 162 LINE SMOOTH",
"64 162 OFFCURVE",
"64 161 OFFCURVE",
"63 160 CURVE SMOOTH",
"17 6 LINE SMOOTH",
"16 5 OFFCURVE",
"17 3 OFFCURVE",
"18 1 CURVE SMOOTH",
"19 1 OFFCURVE",
"20 0 OFFCURVE",
"22 0 CURVE SMOOTH",
"22 0 OFFCURVE",
"23 0 OFFCURVE",
"23 0 CURVE SMOOTH",
"177 47 LINE SMOOTH",
"177 47 OFFCURVE",
"178 48 OFFCURVE",
"179 48 CURVE SMOOTH",
"468 337 LINE SMOOTH",
"469 338 OFFCURVE",
"469 340 OFFCURVE",
"469 341 CURVE SMOOTH",
"469 342 OFFCURVE",
"469 343 OFFCURVE",
"468 344 CURVE SMOOTH",
"361 451 LINE SMOOTH"
);
}
);
width = 600;
}
);
unicode = F014;
},
{
glyphname = unif015;
lastChange = "2012-04-03 17:40:16 +0100";
layers = (
{
layerId = "5DF6A5AF-1C8C-47E3-A702-CFF98FD4A394";
name = Regular;
paths = (
{
closed = 1;
nodes = (
"288 231 OFFCURVE",
"303 231 OFFCURVE",
"312 237 CURVE SMOOTH",
"668 471 LINE SMOOTH",
"677 477 OFFCURVE",
"685 491 OFFCURVE",
"685 502 CURVE SMOOTH",
"685 545 LINE SMOOTH",
"685 556 OFFCURVE",
"676 565 OFFCURVE",
"665 565 CURVE SMOOTH",
"-75 565 LINE SMOOTH",
"-86 565 OFFCURVE",
"-95 556 OFFCURVE",
"-95 545 CURVE SMOOTH",
"-95 491 LINE SMOOTH",
"-95 480 OFFCURVE",
"-88 466 OFFCURVE",
"-78 460 CURVE SMOOTH",
"279 237 LINE SMOOTH"
);
},
{
closed = 1;
nodes = (
"305 77 OFFCURVE",
"290 77 OFFCURVE",
"280 82 CURVE SMOOTH",
"-78 307 LINE SMOOTH",
"-88 312 OFFCURVE",
"-95 308 OFFCURVE",
"-95 297 CURVE SMOOTH",
"-95 20 LINE SMOOTH",
"-95 9 OFFCURVE",
"-86 0 OFFCURVE",
"-75 0 CURVE SMOOTH",
"665 0 LINE SMOOTH",
"676 0 OFFCURVE",
"685 9 OFFCURVE",
"685 20 CURVE SMOOTH",
"685 307 LINE SMOOTH",
"685 318 OFFCURVE",
"677 322 OFFCURVE",
"668 316 CURVE SMOOTH",
"314 83 LINE SMOOTH"
);
}
);
width = 600;
}
);
unicode = F015;
},
{
glyphname = unif016;
lastChange = "2012-04-03 17:40:26 +0100";
layers = (
{
layerId = "5DF6A5AF-1C8C-47E3-A702-CFF98FD4A394";
name = Regular;
paths = (
{
closed = 1;
nodes = (
"469 491 LINE",
"469 584 OFFCURVE",
"394 659 OFFCURVE",
"301 659 CURVE SMOOTH",
"208 659 OFFCURVE",
"133 584 OFFCURVE",
"133 491 CURVE",
"-16 491 LINE SMOOTH",
"-27 491 OFFCURVE",
"-35 482 OFFCURVE",
"-33 471 CURVE SMOOTH",
"30 20 LINE SMOOTH",
"31 9 OFFCURVE",
"42 0 OFFCURVE",
"53 0 CURVE SMOOTH",
"281 0 LINE SMOOTH",
"292 0 OFFCURVE",
"310 0 OFFCURVE",
"321 0 CURVE SMOOTH",
"549 0 LINE SMOOTH",
"560 0 OFFCURVE",
"571 9 OFFCURVE",
"572 20 CURVE SMOOTH",
"635 471 LINE SMOOTH",
"637 482 OFFCURVE",
"629 491 OFFCURVE",
"618 491 CURVE SMOOTH"
);
},
{
closed = 1;
nodes = (
"350 579 OFFCURVE",
"389 540 OFFCURVE",
"389 491 CURVE",
"321 491 LINE SMOOTH",
"310 491 OFFCURVE",
"292 491 OFFCURVE",
"281 491 CURVE SMOOTH",
"213 491 LINE",
"213 540 OFFCURVE",
"252 579 OFFCURVE",
"301 579 CURVE SMOOTH"
);
}
);
width = 600;
}
);
unicode = F016;
},
{
glyphname = unif017;
lastChange = "2012-04-03 17:40:36 +0100";
layers = (
{
layerId = "5DF6A5AF-1C8C-47E3-A702-CFF98FD4A394";
name = Regular;
paths = (
{
closed = 1;
nodes = (
"47 0 LINE SMOOTH",
"14 0 OFFCURVE",
"-13 27 OFFCURVE",
"-13 60 CURVE SMOOTH",
"-13 639 LINE SMOOTH",
"-13 672 OFFCURVE",
"14 699 OFFCURVE",
"47 699 CURVE SMOOTH",
"446 699 LINE SMOOTH",
"479 699 OFFCURVE",
"506 672 OFFCURVE",
"506 639 CURVE SMOOTH",
"506 548 LINE SMOOTH",
"506 514 OFFCURVE",
"479 514 OFFCURVE",
"446 514 CURVE SMOOTH",
"413 514 OFFCURVE",
"386 514 OFFCURVE",
"386 548 CURVE SMOOTH",
"386 579 LINE",
"107 579 LINE",
"107 120 LINE",
"386 120 LINE",
"386 196 LINE SMOOTH",
"386 229 OFFCURVE",
"413 230 OFFCURVE",
"446 230 CURVE SMOOTH",
"479 230 OFFCURVE",
"506 229 OFFCURVE",
"506 196 CURVE SMOOTH",
"506 60 LINE SMOOTH",
"506 27 OFFCURVE",
"479 0 OFFCURVE",
"446 0 CURVE SMOOTH"
);
},
{
closed = 1;
nodes = (
"557 484 LINE SMOOTH",
"550 491 OFFCURVE",
"543 489 OFFCURVE",
"543 478 CURVE SMOOTH",
"543 448 LINE",
"344 448 LINE SMOOTH",
"302 448 OFFCURVE",
"308 415 OFFCURVE",
"308 373 CURVE SMOOTH",
"308 331 OFFCURVE",
"302 297 OFFCURVE",
"344 297 CURVE SMOOTH",
"543 297 LINE",
"543 268 LINE SMOOTH",
"543 257 OFFCURVE",
"550 254 OFFCURVE",
"557 262 CURVE SMOOTH",
"654 359 LINE SMOOTH",
"662 366 OFFCURVE",
"662 379 OFFCURVE",
"654 387 CURVE SMOOTH"
);
}
);
width = 600;
}
);
unicode = F017;
},
{
glyphname = unif018;
lastChange = "2012-04-03 17:40:44 +0100";
layers = (
{
layerId = "5DF6A5AF-1C8C-47E3-A702-CFF98FD4A394";
name = Regular;
paths = (
{
closed = 1;
nodes = (
"534 744 OFFCURVE",
"308 577 OFFCURVE",
"298 570 CURVE",
"289 577 OFFCURVE",
"63 744 OFFCURVE",
"-62 569 CURVE SMOOTH",
"-185 398 OFFCURVE",
"127 163 OFFCURVE",
"290 4 CURVE",
"290 4 OFFCURVE",
"292 0 OFFCURVE",
"298 0 CURVE SMOOTH",
"304 0 OFFCURVE",
"307 4 OFFCURVE",
"307 4 CURVE",
"470 163 OFFCURVE",
"782 398 OFFCURVE",
"659 569 CURVE SMOOTH"
);
}
);
width = 600;
}
);
unicode = F018;
},
{
glyphname = unif019;
lastChange = "2012-04-03 17:40:52 +0100";
layers = (
{
layerId = "5DF6A5AF-1C8C-47E3-A702-CFF98FD4A394";
name = Regular;
paths = (
{
closed = 1;
nodes = (
"151 698 LINE SMOOTH",
"129 698 OFFCURVE",
"111 680 OFFCURVE",
"111 658 CURVE SMOOTH",
"111 40 LINE SMOOTH",
"111 18 OFFCURVE",
"129 0 OFFCURVE",
"151 0 CURVE SMOOTH",
"453 0 LINE SMOOTH",
"475 0 OFFCURVE",
"493 18 OFFCURVE",
"493 40 CURVE SMOOTH",
"493 658 LINE SMOOTH",
"493 680 OFFCURVE",
"475 698 OFFCURVE",
"453 698 CURVE SMOOTH"
);
},
{
closed = 1;
nodes = (
"283 37 OFFCURVE",
"268 52 OFFCURVE",
"268 71 CURVE SMOOTH",
"268 89 OFFCURVE",
"283 105 OFFCURVE",
"302 105 CURVE SMOOTH",
"321 105 OFFCURVE",
"336 89 OFFCURVE",
"336 71 CURVE SMOOTH",
"336 52 OFFCURVE",
"321 37 OFFCURVE",
"302 37 CURVE SMOOTH"
);
},
{
closed = 1;
nodes = (
"156 133 LINE",
"156 603 LINE",
"442 603 LINE",
"442 133 LINE"
);
}
);
width = 600;
}
);
unicode = F019;
},
{
glyphname = unif01a;
lastChange = "2012-04-03 17:41:03 +0100";
layers = (
{
layerId = "5DF6A5AF-1C8C-47E3-A702-CFF98FD4A394";
name = Regular;
paths = (
{
closed = 1;
nodes = (
"209 339 OFFCURVE",
"165 369 OFFCURVE",
"116 389 CURVE SMOOTH",
"65 411 OFFCURVE",
"12 422 OFFCURVE",
"-44 422 CURVE SMOOTH",
"-50 422 OFFCURVE",
"-55 417 OFFCURVE",
"-55 410 CURVE SMOOTH",
"-55 276 LINE SMOOTH",
"-55 270 OFFCURVE",
"-50 265 OFFCURVE",
"-44 265 CURVE SMOOTH",
"96 265 OFFCURVE",
"209 151 OFFCURVE",
"209 12 CURVE SMOOTH",
"209 5 OFFCURVE",
"214 0 OFFCURVE",
"220 0 CURVE SMOOTH",
"355 0 LINE SMOOTH",
"361 0 OFFCURVE",
"366 5 OFFCURVE",
"366 12 CURVE SMOOTH",
"366 67 OFFCURVE",
"355 121 OFFCURVE",
"334 171 CURVE SMOOTH",
"313 220 OFFCURVE",
"284 264 OFFCURVE",
"246 302 CURVE SMOOTH"
);
},
{
closed = 1;
nodes = (
"548 351 OFFCURVE",
"499 424 OFFCURVE",
"436 486 CURVE SMOOTH",
"374 549 OFFCURVE",
"301 598 OFFCURVE",
"221 632 CURVE SMOOTH",
"137 667 OFFCURVE",
"48 685 OFFCURVE",
"-44 685 CURVE SMOOTH",
"-50 685 OFFCURVE",
"-55 680 OFFCURVE",
"-55 674 CURVE SMOOTH",
"-55 539 LINE SMOOTH",
"-55 533 OFFCURVE",
"-50 528 OFFCURVE",
"-44 528 CURVE SMOOTH",
"241 528 OFFCURVE",
"475 296 OFFCURVE",
"478 11 CURVE SMOOTH",
"478 5 OFFCURVE",
"483 0 OFFCURVE",
"489 0 CURVE SMOOTH",
"624 0 LINE SMOOTH",
"627 0 OFFCURVE",
"630 1 OFFCURVE",
"632 3 CURVE SMOOTH",
"634 5 OFFCURVE",
"635 8 OFFCURVE",
"635 11 CURVE SMOOTH",
"635 101 OFFCURVE",
"617 188 OFFCURVE",
"582 270 CURVE SMOOTH"
);
},
{
closed = 1;
nodes = (
"95 35 OFFCURVE",
"61 0 OFFCURVE",
"19 0 CURVE SMOOTH",
"-23 0 OFFCURVE",
"-58 35 OFFCURVE",
"-58 77 CURVE SMOOTH",
"-58 119 OFFCURVE",
"-23 153 OFFCURVE",
"19 153 CURVE SMOOTH",
"61 153 OFFCURVE",
"95 119 OFFCURVE",
"95 77 CURVE SMOOTH"
);
}
);
width = 600;
}
);
unicode = F01A;
},
{
glyphname = unif01b;
lastChange = "2012-04-03 17:41:12 +0100";
layers = (
{
layerId = "5DF6A5AF-1C8C-47E3-A702-CFF98FD4A394";
name = Regular;
paths = (
{
closed = 1;
nodes = (
"173 217 OFFCURVE",
"160 233 OFFCURVE",
"149 251 CURVE SMOOTH",
"140 269 OFFCURVE",
"133 288 OFFCURVE",
"131 308 CURVE SMOOTH",
"130 312 OFFCURVE",
"130 317 OFFCURVE",
"130 321 CURVE",
"39 392 LINE SMOOTH",
"8 416 OFFCURVE",
"2 461 OFFCURVE",
"26 492 CURVE SMOOTH",
"62 538 LINE SMOOTH",
"86 569 OFFCURVE",
"131 575 OFFCURVE",
"162 551 CURVE SMOOTH",
"254 480 LINE",
"258 481 OFFCURVE",
"262 481 OFFCURVE",
"266 482 CURVE SMOOTH",
"286 484 OFFCURVE",
"306 483 OFFCURVE",
"325 478 CURVE SMOOTH",
"345 472 OFFCURVE",
"364 463 OFFCURVE",
"381 450 CURVE SMOOTH",
"510 350 LINE",
"507 403 OFFCURVE",
"482 455 OFFCURVE",
"436 490 CURVE SMOOTH",
"236 646 LINE SMOOTH",
"152 710 OFFCURVE",
"32 695 OFFCURVE",
"-33 612 CURVE SMOOTH",
"-69 566 LINE SMOOTH",
"-134 482 OFFCURVE",
"-118 362 OFFCURVE",
"-35 297 CURVE SMOOTH",
"166 141 LINE SMOOTH",
"211 106 OFFCURVE",
"267 95 OFFCURVE",
"319 104 CURVE",
"190 204 LINE SMOOTH"
);
},
{
closed = 1;
nodes = (
"231 269 LINE SMOOTH",
"196 296 OFFCURVE",
"190 346 OFFCURVE",
"217 381 CURVE SMOOTH",
"244 416 OFFCURVE",
"294 422 OFFCURVE",
"329 395 CURVE SMOOTH",
"653 143 LINE SMOOTH",
"688 116 OFFCURVE",
"695 66 OFFCURVE",
"668 31 CURVE SMOOTH",
"641 -4 OFFCURVE",
"590 -10 OFFCURVE",
"555 17 CURVE SMOOTH"
);
}
);
width = 600;
}
);
unicode = F01B;
},
{
glyphname = unif01c;
lastChange = "2012-04-03 17:41:20 +0100";
layers = (
{
layerId = "5DF6A5AF-1C8C-47E3-A702-CFF98FD4A394";
name = Regular;
paths = (
{
closed = 1;
nodes = (
"-66 504 OFFCURVE",
"-55 528 OFFCURVE",
"-33 542 CURVE SMOOTH",
"-16 554 OFFCURVE",
"134 550 OFFCURVE",
"284 550 CURVE SMOOTH",
"434 550 OFFCURVE",
"584 554 OFFCURVE",
"601 542 CURVE SMOOTH",
"635 519 OFFCURVE",
"644 473 OFFCURVE",
"621 438 CURVE SMOOTH",
"346 33 LINE SMOOTH",
"332 12 OFFCURVE",
"309 0 OFFCURVE",
"284 0 CURVE SMOOTH",
"259 0 OFFCURVE",
"236 12 OFFCURVE",
"222 33 CURVE SMOOTH",
"-53 438 LINE SMOOTH",
"-62 451 OFFCURVE",
"-66 466 OFFCURVE",
"-66 480 CURVE SMOOTH"
);
}
);
width = 600;
}
);
unicode = F01C;
},
{
glyphname = unif01d;
lastChange = "2012-04-03 17:41:26 +0100";
layers = (
{
layerId = "5DF6A5AF-1C8C-47E3-A702-CFF98FD4A394";
name = Regular;
paths = (
{
closed = 1;
nodes = (
"638 46 OFFCURVE",
"626 22 OFFCURVE",
"605 8 CURVE SMOOTH",
"588 -4 OFFCURVE",
"438 1 OFFCURVE",
"288 1 CURVE SMOOTH",
"138 1 OFFCURVE",
"-12 -4 OFFCURVE",
"-29 8 CURVE SMOOTH",
"-64 31 OFFCURVE",
"-73 78 OFFCURVE",
"-49 112 CURVE SMOOTH",
"226 517 LINE SMOOTH",
"240 538 OFFCURVE",
"263 550 OFFCURVE",
"288 550 CURVE SMOOTH",
"312 550 OFFCURVE",
"336 538 OFFCURVE",
"350 517 CURVE SMOOTH",
"625 112 LINE SMOOTH",
"633 99 OFFCURVE",
"638 85 OFFCURVE",
"638 70 CURVE SMOOTH"
);
}
);
width = 600;
}
);
unicode = F01D;
},
{
glyphname = unif01e;
lastChange = "2012-04-03 17:41:34 +0100";
layers = (
{
layerId = "5DF6A5AF-1C8C-47E3-A702-CFF98FD4A394";
name = Regular;
paths = (
{
closed = 1;
nodes = (
"73 0 OFFCURVE",
"49 12 OFFCURVE",
"34 33 CURVE SMOOTH",
"23 50 OFFCURVE",
"27 200 OFFCURVE",
"27 350 CURVE SMOOTH",
"27 500 OFFCURVE",
"23 650 OFFCURVE",
"34 667 CURVE SMOOTH",
"58 701 OFFCURVE",
"104 710 OFFCURVE",
"139 687 CURVE SMOOTH",
"544 412 LINE SMOOTH",
"564 398 OFFCURVE",
"577 375 OFFCURVE",
"577 350 CURVE SMOOTH",
"577 325 OFFCURVE",
"564 302 OFFCURVE",
"544 288 CURVE SMOOTH",
"139 13 LINE SMOOTH",
"126 4 OFFCURVE",
"111 0 OFFCURVE",
"97 0 CURVE SMOOTH"
);
}
);
width = 600;
}
);
unicode = F01E;
},
{
glyphname = unif021;
lastChange = "2012-04-03 17:41:40 +0100";
layers = (
{
layerId = "5DF6A5AF-1C8C-47E3-A702-CFF98FD4A394";
name = Regular;
paths = (
{
closed = 1;
nodes = (
"524 700 OFFCURVE",
"548 688 OFFCURVE",
"562 667 CURVE SMOOTH",
"574 650 OFFCURVE",
"570 500 OFFCURVE",
"570 350 CURVE SMOOTH",
"570 200 OFFCURVE",
"574 50 OFFCURVE",
"562 33 CURVE SMOOTH",
"539 -1 OFFCURVE",
"493 -10 OFFCURVE",
"458 13 CURVE SMOOTH",
"53 288 LINE SMOOTH",
"32 302 OFFCURVE",
"20 325 OFFCURVE",
"20 350 CURVE SMOOTH",
"20 375 OFFCURVE",
"32 398 OFFCURVE",
"53 412 CURVE SMOOTH",
"458 687 LINE SMOOTH",
"471 696 OFFCURVE",
"486 700 OFFCURVE",
"500 700 CURVE SMOOTH"
);
}
);
width = 600;
}
);
unicode = F021;
},
{
glyphname = unif022;
lastChange = "2012-04-03 17:41:48 +0100";
layers = (
{
layerId = "5DF6A5AF-1C8C-47E3-A702-CFF98FD4A394";
name = Regular;
paths = (
{
closed = 1;
nodes = (
"-10 697 LINE SMOOTH",
"-32 697 OFFCURVE",
"-50 679 OFFCURVE",
"-50 657 CURVE SMOOTH",
"-50 40 LINE SMOOTH",
"-50 18 OFFCURVE",
"-32 0 OFFCURVE",
"-10 0 CURVE SMOOTH",
"607 0 LINE SMOOTH",
"629 0 OFFCURVE",
"647 18 OFFCURVE",
"647 40 CURVE SMOOTH",
"647 657 LINE SMOOTH",
"647 679 OFFCURVE",
"629 697 OFFCURVE",
"607 697 CURVE SMOOTH"
);
},
{
closed = 1;
nodes = (
"446 306 LINE",
"446 50 LINE",
"348 50 LINE",
"348 306 LINE",
"280 306 LINE",
"280 398 LINE",
"348 398 LINE",
"348 398 OFFCURVE",
"348 436 OFFCURVE",
"348 477 CURVE SMOOTH",
"348 539 OFFCURVE",
"388 596 OFFCURVE",
"480 596 CURVE SMOOTH",
"518 596 OFFCURVE",
"545 592 OFFCURVE",
"545 592 CURVE",
"543 506 LINE",
"543 506 OFFCURVE",
"515 506 OFFCURVE",
"484 506 CURVE SMOOTH",
"451 506 OFFCURVE",
"446 491 OFFCURVE",
"446 465 CURVE SMOOTH",
"446 462 OFFCURVE",
"446 461 OFFCURVE",
"446 461 CURVE",
"446 454 OFFCURVE",
"446 437 OFFCURVE",
"446 398 CURVE",
"546 398 LINE",
"541 306 LINE"
);
}
);
width = 600;
}
);
unicode = F022;
},
{
glyphname = unif023;
lastChange = "2012-04-03 17:41:55 +0100";
layers = (
{
layerId = "5DF6A5AF-1C8C-47E3-A702-CFF98FD4A394";
name = Regular;
paths = (
{
closed = 1;
nodes = (
"37 695 LINE SMOOTH",
"-11 695 OFFCURVE",
"-50 657 OFFCURVE",
"-50 609 CURVE SMOOTH",
"-50 87 LINE SMOOTH",
"-50 39 OFFCURVE",
"-11 0 OFFCURVE",
"37 0 CURVE SMOOTH",
"559 0 LINE SMOOTH",
"607 0 OFFCURVE",
"645 39 OFFCURVE",
"645 87 CURVE SMOOTH",
"645 609 LINE SMOOTH",
"645 657 OFFCURVE",
"607 695 OFFCURVE",
"559 695 CURVE SMOOTH"
);
},
{
closed = 1;
nodes = (
"480 159 OFFCURVE",
"170 79 OFFCURVE",
"27 274 CURVE",
"82 221 OFFCURVE",
"177 217 OFFCURVE",
"237 279 CURVE",
"202 274 OFFCURVE",
"176 309 OFFCURVE",
"220 327 CURVE",
"181 323 OFFCURVE",
"159 344 OFFCURVE",
"150 362 CURVE",
"159 371 OFFCURVE",
"169 376 OFFCURVE",
"189 377 CURVE",
"146 387 OFFCURVE",
"130 408 OFFCURVE",
"125 433 CURVE",
"137 436 OFFCURVE",
"152 439 OFFCURVE",
"160 438 CURVE",
"123 457 OFFCURVE",
"110 487 OFFCURVE",
"112 509 CURVE",
"179 484 OFFCURVE",
"221 464 OFFCURVE",
"257 445 CURVE SMOOTH",
"270 438 OFFCURVE",
"284 426 OFFCURVE",
"300 410 CURVE",
"320 464 OFFCURVE",
"345 520 OFFCURVE",
"389 547 CURVE",
"388 541 OFFCURVE",
"384 535 OFFCURVE",
"380 530 CURVE",
"392 542 OFFCURVE",
"408 549 OFFCURVE",
"424 551 CURVE",
"422 539 OFFCURVE",
"405 532 OFFCURVE",
"394 529 CURVE",
"402 531 OFFCURVE",
"445 550 OFFCURVE",
"449 539 CURVE SMOOTH",
"455 527 OFFCURVE",
"420 521 OFFCURVE",
"414 519 CURVE SMOOTH",
"410 518 OFFCURVE",
"406 516 OFFCURVE",
"401 514 CURVE",
"455 520 OFFCURVE",
"506 475 OFFCURVE",
"521 420 CURVE SMOOTH",
"522 416 OFFCURVE",
"523 412 OFFCURVE",
"524 407 CURVE",
"544 400 OFFCURVE",
"580 408 OFFCURVE",
"591 415 CURVE",
"583 395 OFFCURVE",
"561 380 OFFCURVE",
"529 378 CURVE",
"545 371 OFFCURVE",
"574 368 OFFCURVE",
"593 371 CURVE",
"581 358 OFFCURVE",
"561 346 OFFCURVE",
"526 346 CURVE"
);
}
);
width = 600;
}
);
unicode = F023;
},
{
glyphname = unif024;
lastChange = "2012-04-03 17:42:03 +0100";
layers = (
{
layerId = "5DF6A5AF-1C8C-47E3-A702-CFF98FD4A394";
name = Regular;
paths = (
{
closed = 1;
nodes = (
"191 528 OFFCURVE",
"140 590 OFFCURVE",
"83 592 CURVE SMOOTH",
"82 592 OFFCURVE",
"82 592 OFFCURVE",
"81 592 CURVE SMOOTH",
"59 592 OFFCURVE",
"40 583 OFFCURVE",
"25 566 CURVE SMOOTH",
"3 541 OFFCURVE",
"-6 502 OFFCURVE",
"-1 459 CURVE SMOOTH",
"9 384 OFFCURVE",
"63 327 OFFCURVE",
"124 325 CURVE SMOOTH",
"125 325 OFFCURVE",
"126 325 OFFCURVE",
"127 325 CURVE SMOOTH",
"149 325 OFFCURVE",
"168 333 OFFCURVE",
"181 348 CURVE SMOOTH",
"200 370 OFFCURVE",
"207 405 OFFCURVE",
"202 448 CURVE SMOOTH"
);
},
{
closed = 1;
nodes = (
"181 114 OFFCURVE",
"174 119 OFFCURVE",
"167 124 CURVE",
"149 129 OFFCURVE",
"130 132 OFFCURVE",
"110 133 CURVE SMOOTH",
"108 133 LINE SMOOTH",
"41 133 OFFCURVE",
"-20 98 OFFCURVE",
"-43 53 CURVE",
"-30 22 OFFCURVE",
"1 0 OFFCURVE",
"37 0 CURVE SMOOTH",
"267 0 LINE",
"267 3 OFFCURVE",
"267 6 OFFCURVE",
"267 9 CURVE SMOOTH",
"267 17 OFFCURVE",
"266 25 OFFCURVE",
"264 32 CURVE SMOOTH",
"256 63 OFFCURVE",
"227 83 OFFCURVE",
"187 110 CURVE SMOOTH"
);
},
{
closed = 1;
nodes = (
"-14 170 OFFCURVE",
"30 182 OFFCURVE",
"79 182 CURVE SMOOTH",
"85 182 OFFCURVE",
"91 182 OFFCURVE",
"97 182 CURVE",
"86 195 OFFCURVE",
"77 211 OFFCURVE",
"77 233 CURVE SMOOTH",
"77 244 OFFCURVE",
"79 256 OFFCURVE",
"84 267 CURVE",
"82 267 OFFCURVE",
"80 267 OFFCURVE",
"78 267 CURVE SMOOTH",
"27 267 OFFCURVE",
"-18 284 OFFCURVE",
"-50 312 CURVE",
"-50 152 LINE"
);
},
{
closed = 1;
nodes = (
"547 348 LINE",
"537 348 LINE",
"482 348 LINE",
"471 348 LINE",
"471 359 LINE",
"471 456 LINE",
"374 456 LINE",
"363 456 LINE",
"363 467 LINE",
"363 522 LINE",
"363 532 LINE",
"374 532 LINE",
"471 532 LINE",
"471 630 LINE",
"471 641 LINE",
"482 641 LINE",
"537 641 LINE",
"547 641 LINE",
"547 630 LINE",
"547 532 LINE",
"645 532 LINE",
"645 609 LINE SMOOTH",
"645 657 OFFCURVE",
"606 695 OFFCURVE",
"558 695 CURVE SMOOTH",
"37 695 LINE SMOOTH",
"-11 695 OFFCURVE",
"-50 657 OFFCURVE",
"-50 609 CURVE SMOOTH",
"-50 586 LINE",
"-7 626 OFFCURVE",
"54 652 OFFCURVE",
"119 652 CURVE SMOOTH",
"355 652 LINE",
"380 652 LINE",
"362 634 LINE",
"310 578 LINE",
"307 575 LINE",
"302 575 LINE",
"272 575 LINE",
"301 546 OFFCURVE",
"318 502 OFFCURVE",
"318 453 CURVE SMOOTH",
"318 402 OFFCURVE",
"292 356 OFFCURVE",
"244 318 CURVE SMOOTH",
"204 287 OFFCURVE",
"201 277 OFFCURVE",
"201 256 CURVE SMOOTH",
"201 241 OFFCURVE",
"244 209 OFFCURVE",
"261 196 CURVE SMOOTH",
"266 193 LINE SMOOTH",
"341 136 OFFCURVE",
"362 99 OFFCURVE",
"362 20 CURVE SMOOTH",
"362 13 OFFCURVE",
"361 7 OFFCURVE",
"360 0 CURVE",
"558 0 LINE SMOOTH",
"606 0 OFFCURVE",
"645 39 OFFCURVE",
"645 87 CURVE SMOOTH",
"645 456 LINE",
"547 456 LINE",
"547 359 LINE"
);
}
);
width = 600;
}
);
unicode = F024;
},
{
glyphname = unif025;
lastChange = "2012-04-03 17:42:10 +0100";
layers = (
{
layerId = "5DF6A5AF-1C8C-47E3-A702-CFF98FD4A394";
name = Regular;
paths = (
{
closed = 1;
nodes = (
"444 426 OFFCURVE",
"464 482 OFFCURVE",
"464 528 CURVE SMOOTH",
"464 537 LINE SMOOTH",
"464 628 OFFCURVE",
"390 702 OFFCURVE",
"299 702 CURVE SMOOTH",
"290 702 LINE SMOOTH",
"199 702 OFFCURVE",
"125 628 OFFCURVE",
"125 537 CURVE SMOOTH",
"125 528 LINE SMOOTH",
"125 482 OFFCURVE",
"144 426 OFFCURVE",
"175 382 CURVE",
"83 329 OFFCURVE",
"20 216 OFFCURVE",
"20 85 CURVE SMOOTH",
"20 -27 OFFCURVE",
"569 -29 OFFCURVE",
"569 85 CURVE SMOOTH",
"569 216 OFFCURVE",
"505 329 OFFCURVE",
"413 382 CURVE"
);
},
{
closed = 1;
nodes = (
"414 44 OFFCURVE",
"400 38 OFFCURVE",
"385 38 CURVE SMOOTH",
"385 38 OFFCURVE",
"385 38 OFFCURVE",
"385 38 CURVE SMOOTH",
"371 38 OFFCURVE",
"357 44 OFFCURVE",
"346 54 CURVE SMOOTH",
"294 107 LINE",
"242 54 LINE SMOOTH",
"232 44 OFFCURVE",
"218 38 OFFCURVE",
"203 38 CURVE SMOOTH",
"188 38 OFFCURVE",
"174 44 OFFCURVE",
"164 54 CURVE SMOOTH",
"142 76 OFFCURVE",
"142 111 OFFCURVE",
"164 133 CURVE SMOOTH",
"216 185 LINE",
"164 237 LINE SMOOTH",
"154 247 OFFCURVE",
"148 261 OFFCURVE",
"148 276 CURVE SMOOTH",
"148 291 OFFCURVE",
"154 305 OFFCURVE",
"164 315 CURVE SMOOTH",
"174 325 OFFCURVE",
"188 331 OFFCURVE",
"203 331 CURVE SMOOTH",
"218 331 OFFCURVE",
"232 325 OFFCURVE",
"242 315 CURVE SMOOTH",
"294 263 LINE",
"346 315 LINE SMOOTH",
"357 325 OFFCURVE",
"371 331 OFFCURVE",
"385 331 CURVE SMOOTH",
"400 331 OFFCURVE",
"414 325 OFFCURVE",
"425 315 CURVE SMOOTH",
"446 293 OFFCURVE",
"446 258 OFFCURVE",
"425 237 CURVE SMOOTH",
"372 185 LINE",
"425 133 LINE SMOOTH",
"446 111 OFFCURVE",
"446 76 OFFCURVE",
"425 54 CURVE SMOOTH"
);
}
);
width = 600;
}
);
unicode = F025;
},
{
glyphname = unif026;
lastChange = "2012-04-03 17:42:25 +0100";
layers = (
{
layerId = "5DF6A5AF-1C8C-47E3-A702-CFF98FD4A394";
name = Regular;
paths = (
{
closed = 1;
nodes = (
"54 454 LINE SMOOTH",
"35 454 OFFCURVE",
"17 445 OFFCURVE",
"6 432 CURVE SMOOTH",
"5 431 LINE",
"-136 262 LINE",
"-142 255 LINE",
"-147 247 OFFCURVE",
"-150 237 OFFCURVE",
"-150 227 CURVE SMOOTH",
"-150 217 OFFCURVE",
"-147 207 OFFCURVE",
"-142 199 CURVE",
"-136 192 LINE",
"5 23 LINE",
"6 22 LINE SMOOTH",
"17 9 OFFCURVE",
"35 0 OFFCURVE",
"54 0 CURVE SMOOTH",
"589 0 LINE SMOOTH",
"623 0 OFFCURVE",
"651 28 OFFCURVE",
"651 62 CURVE SMOOTH",
"651 227 LINE",
"651 392 LINE SMOOTH",
"651 426 OFFCURVE",
"623 454 OFFCURVE",
"589 454 CURVE SMOOTH"
);
},
{
closed = 1;
nodes = (
"-6 177 OFFCURVE",
"-28 199 OFFCURVE",
"-28 227 CURVE SMOOTH",
"-28 255 OFFCURVE",
"-6 277 OFFCURVE",
"22 277 CURVE SMOOTH",
"50 277 OFFCURVE",
"72 255 OFFCURVE",
"72 227 CURVE SMOOTH",
"72 199 OFFCURVE",
"50 177 OFFCURVE",
"22 177 CURVE SMOOTH"
);
}
);
width = 600;
}
);
unicode = F026;
},
{
glyphname = unif027;
lastChange = "2012-04-03 17:42:34 +0100";
layers = (
{
layerId = "5DF6A5AF-1C8C-47E3-A702-CFF98FD4A394";
name = Regular;
paths = (
{
closed = 1;
nodes = (
"212 0 LINE SMOOTH",
"182 0 OFFCURVE",
"157 21 OFFCURVE",
"153 51 CURVE",
"152 55 OFFCURVE",
"146 83 OFFCURVE",
"122 110 CURVE SMOOTH",
"89 148 OFFCURVE",
"35 168 OFFCURVE",
"-37 168 CURVE SMOOTH",
"-70 168 OFFCURVE",
"-97 195 OFFCURVE",
"-97 228 CURVE SMOOTH",
"-98 473 LINE SMOOTH",
"-98 489 OFFCURVE",
"-92 504 OFFCURVE",
"-81 516 CURVE SMOOTH",
"-69 527 OFFCURVE",
"-54 533 OFFCURVE",
"-38 533 CURVE SMOOTH",
"628 533 LINE SMOOTH",
"661 533 OFFCURVE",
"688 507 OFFCURVE",
"688 473 CURVE SMOOTH",
"688 237 LINE SMOOTH",
"688 204 OFFCURVE",
"662 177 OFFCURVE",
"630 177 CURVE SMOOTH",
"627 176 OFFCURVE",
"578 174 OFFCURVE",
"531 155 CURVE SMOOTH",
"463 127 OFFCURVE",
"455 87 OFFCURVE",
"455 60 CURVE SMOOTH",
"455 27 OFFCURVE",
"428 0 OFFCURVE",
"395 0 CURVE SMOOTH"
);
},
{
closed = 1;
nodes = (
"343 120 LINE",
"362 186 OFFCURVE",
"412 237 OFFCURVE",
"489 268 CURVE SMOOTH",
"517 278 OFFCURVE",
"545 285 OFFCURVE",
"568 290 CURVE",
"568 413 LINE",
"22 413 LINE",
"23 284 LINE",
"125 271 OFFCURVE",
"185 223 OFFCURVE",
"219 182 CURVE SMOOTH",
"236 160 OFFCURVE",
"248 139 OFFCURVE",
"256 120 CURVE"
);
}
);
width = 600;
}
);
unicode = F027;
},
{
glyphname = unif028;
lastChange = "2012-04-03 17:42:48 +0100";
layers = (
{
layerId = "5DF6A5AF-1C8C-47E3-A702-CFF98FD4A394";
name = Regular;
paths = (
{
closed = 1;
nodes = (
"98 699 OFFCURVE",
"-58 543 OFFCURVE",
"-58 350 CURVE SMOOTH",
"-58 158 OFFCURVE",
"98 2 OFFCURVE",
"290 2 CURVE SMOOTH",
"483 2 OFFCURVE",
"639 158 OFFCURVE",
"639 350 CURVE SMOOTH",
"639 543 OFFCURVE",
"483 699 OFFCURVE",
"290 699 CURVE SMOOTH"
);
},
{
closed = 1;
nodes = (
"467 380 LINE",
"526 321 LINE",
"526 262 LINE",
"467 203 LINE",
"290 203 LINE",
"290 321 LINE",
"349 321 LINE",
"290 380 LINE",
"231 380 LINE",
"231 203 LINE",
"114 203 LINE",
"114 380 LINE",
"55 380 LINE",
"55 498 LINE",
"290 498 LINE",
"290 439 LINE",
"349 498 LINE",
"526 498 LINE",
"526 380 LINE"
);
}
);
width = 600;
}
);
unicode = F028;
},
